<?xml version="1.0" encoding="UTF-8" standalone="no"?>
<svg
   xmlns:dc="http://purl.org/dc/elements/1.1/"
   xmlns:cc="http://creativecommons.org/ns#"
   xmlns:rdf="http://www.w3.org/1999/02/22-rdf-syntax-ns#"
   xmlns:svg="http://www.w3.org/2000/svg"
   xmlns="http://www.w3.org/2000/svg"
   xmlns:sodipodi="http://sodipodi.sourceforge.net/DTD/sodipodi-0.dtd"
   xmlns:inkscape="http://www.inkscape.org/namespaces/inkscape"
   version="1.1"
   width="250"
   height="250"
   viewBox="-1.7338671 -1.7338671 85.206254 85.166965"
   id="svg45453"
   sodipodi:docname="OpenShift-Teuferl.svg"
   inkscape:version="1.0.1 (3bc2e813f5, 2020-09-07)">
  <metadata
     id="metadata1119">
    <rdf:RDF>
      <cc:Work
         rdf:about="">
        <dc:format>image/svg+xml</dc:format>
        <dc:type
           rdf:resource="http://purl.org/dc/dcmitype/StillImage" />
        <dc:title></dc:title>
      </cc:Work>
    </rdf:RDF>
  </metadata>
  <sodipodi:namedview
     pagecolor="#ffffff"
     bordercolor="#666666"
     borderopacity="1"
     objecttolerance="10"
     gridtolerance="10"
     guidetolerance="10"
     inkscape:pageopacity="0"
     inkscape:pageshadow="2"
     inkscape:window-width="2548"
     inkscape:window-height="1406"
     id="namedview1117"
     showgrid="false"
     inkscape:zoom="0.72736244"
     inkscape:cx="1021.7952"
     inkscape:cy="297.05993"
     inkscape:window-x="3840"
     inkscape:window-y="0"
     inkscape:window-maximized="1"
     inkscape:current-layer="svg45453" />
  <defs
     id="defs45455" />
  <path
     id="Auswahl #3"
     fill="none"
     stroke="#000000"
     stroke-width="0.21412"
     d="m 54.078079,2.7692878 c 1.29757,0.244098 2.325347,0.850058 3.425926,1.545949 3.051217,1.927084 5.11292,6.0712382 5.051366,7.8391102 -0.06155,1.767871 -0.538828,2.847353 -1.415601,3.851864 -0.876773,1.004512 -3.430209,2.006308 -4.920487,1.935649 -0.518172,-0.02569 -1.012789,-0.199132 -1.498842,-0.364005 -0.610244,-0.205555 -1.869273,-0.644502 -2.044851,-1.340394 -0.16058,-0.640219 0.565279,-1.199074 0.978531,-1.567361 0.58669,-0.526737 3.273901,-2.892767 3.547975,-3.355266 C 58.396887,9.2913963 56.87021,6.1481088 55.594051,4.4908168 Z"
     sodipodi:nodetypes="cczzccccccc"
     style="fill:#ff0000;fill-opacity:1;stroke:none" />
  <path
     id="Auswahl #2"
     fill="none"
     stroke="#000000"
     stroke-width="0.236978"
     d="m 32.605128,15.289587 c -1.279684,0.846012 -2.381574,3.060768 -3.637558,3.089206 -1.398173,0.03081 -3.953164,-2.377745 -4.541415,-3.325819 -0.588251,-0.948074 -1.10393,-2.417437 -0.473792,-4.672517 0.630138,-2.2550804 3.29389,-4.4167209 5.572042,-5.9160395 1.199111,-0.75833 2.381632,-1.469266 3.791652,-1.73468 l -2.258404,2.843738 c -1.061663,1.5711669 -2.267881,4.5902705 -1.263094,6.3960455 0.357839,0.642211 2.170722,2.28921 2.810564,2.846109 v 0.473957 z"
     sodipodi:nodetypes="cczzccccccc"
     style="fill:#ff0000;fill-opacity:1;stroke:none" />
  <path
     id="Auswahl #1"
     fill="none"
     stroke="#000000"
     stroke-width="0.181046"
     d="m 44.020936,81.305268 1.366099,-4.402872 0.521128,-3.69489 c 0.199146,-0.736158 0.6328,-1.09191 1.46288,-0.968631 1.005034,0.151457 1.245124,0.901709 1.796031,0.628731 0.521129,-0.25889 0.926863,-1.600883 1.060868,-2.129229 0.549043,-2.187346 0.830082,-4.251411 -0.325705,-6.340133 -1.688083,-3.050309 -5.570486,-3.557519 -8.859174,-3.522297 -2.046018,-0.03617 -3.983238,0.239941 -5.97557,0.426195 -2.220501,0.327263 -4.243402,0.462694 -6.680392,0.855918 -3.59206,0.40859 -4.805544,0.660433 -8.561386,0.655151 -5.025162,-0.007 -9.089959,-3.902705 -9.9647093,-8.453512 -0.2977874,-1.54981 -0.228924,-2.190869 -0.1005033,-3.69841 0.186117,-2.20672 0.7835526,-4.098193 2.3636866,-5.795941 1.76439,-1.898516 5.041912,-3.173588 7.701525,-3.185916 h 3.350109 c 1.690664,0.06541 2.098808,0.439132 3.714785,1.699326 -1.530449,0.753145 -1.228435,0.803069 -2.258028,0.851083 -1.027746,0.04798 -1.828993,-0.239783 -2.752133,-0.266201 -2.862481,-0.08101 -5.322949,0.253607 -7.396293,2.324717 -2.871787,2.867149 -2.977873,8.457033 -0.208451,11.417523 3.912181,4.177445 8.734143,2.58736 13.768093,2.152966 1.851373,-0.19121 3.66645,-0.579501 5.512279,-0.816945 1.927063,-0.304094 3.870406,-0.456009 5.811934,-0.631563 5.449508,-0.05988 11.926384,0.494884 13.824778,6.340134 0.290342,0.894664 0.49321,2.058783 0.506238,2.993952 0.01674,1.459991 -0.01311,2.69808 -0.710967,4.05064 -0.295926,0.575896 -1.423796,1.894997 -1.438685,2.280688 -0.04281,1.171164 2.250154,0.405064 1.902116,1.946069 -0.245675,1.084867 -1.624802,1.368412 -2.544221,1.738253 -1.883505,0.759055 -3.277521,1.400113 -5.025161,2.428624 0,0 -1.861171,1.116568 -1.861171,1.11657 z"
     style="fill:#ff0000;fill-opacity:1;stroke:none"
     sodipodi:nodetypes="cccccccccccccccccccccccccccccccc" />
  <path
     d="m 67.494838,19.930888 c -0.5725,-1.1825 -1.235,-2.32375 -2.00375,-3.4 l -8.2125,2.98875 c 0.955,0.9775 1.7575,2.07625 2.41375,3.25125 z m -36.30287,9.08338 -8.215,2.98875 c 0.105,1.3175 0.3325,2.61875 0.65125,3.89375 l 7.80375,-2.84125 c -0.25375,-1.32 -0.34375,-2.68 -0.24,-4.04125"
     id="path44560"
     style="fill:#c22133;fill-opacity:1;fill-rule:nonzero;stroke:none" />
  <path
     d="m 49.423218,17.604388 c 1.70875,0.7975 3.18875,1.885 4.4375,3.16 l 8.2125,-2.98875 c -2.275,-3.1925 -5.37375,-5.86 -9.17,-7.63125 -11.74125,-5.4750002 -25.74875,-0.3775002 -31.2225,11.3625 -1.7725,3.79875 -2.43125,7.83375 -2.12125,11.74125 l 8.21375,-2.98875 c 0.13625,-1.78 0.57,-3.56375 1.36625,-5.27375 3.5575,-7.6275 12.65625,-10.9375 20.28375,-7.38125"
     id="path44564"
     style="fill:#db212e;fill-opacity:1;fill-rule:nonzero;stroke:none" />
  <path
     d="m 58.182838,32.612518 c -0.13125,1.77875 -0.58,3.5625 -1.37875,5.27375 -3.55625,7.62875 -12.65625,10.93875 -20.2825,7.3825 -1.71125,-0.79875 -3.2025,-1.8775 -4.44625,-3.155 l -8.19625,2.9825 c 2.27,3.1925 5.365,5.86125 9.16375,7.63375 11.74125,5.47375 25.74625,0.37625 31.22125,-11.365 1.77375,-3.79625 2.4275,-7.83125 2.115,-11.735 z"
     id="path44572"
     style="fill:#db212e;fill-opacity:1;fill-rule:nonzero;stroke:none" />
  <path
     d="m 60.202468,22.585388 -7.80375,2.84 c 1.45,2.5975 2.135,5.5875 1.91,8.595 l 8.19625,-2.98125 c -0.235,-2.94125 -1.01875,-5.8125 -2.3025,-8.45375 m -36.06275,13.124 -7.80375,2.8425 c 0.71625,2.845 1.96,5.54875 3.67,7.955 l 8.195,-2.98375 c -2.10375,-2.16 -3.5025,-4.89375 -4.06125,-7.81375"
     id="path44576"
     style="fill:#eb2126;fill-opacity:1;fill-rule:nonzero;stroke:none" />
  <path
     d="m 66.305338,17.767268 c -0.25875,-0.42 -0.5275,-0.83375 -0.81375,-1.23625 l -8.2125,2.98875 c 0.36125,0.37 0.69375,0.7625 1.01125,1.165 z m -35.14475,12.89637 c -0.02,-0.5475 -0.0113,-1.0975 0.0312,-1.64875 l -8.215,2.98875 c 0.0425,0.52625 0.10875,1.04875 0.1875,1.57 l 7.99625,-2.91 z"
     id="path44584"
     style="fill:#ad213b;fill-opacity:1;fill-rule:nonzero;stroke:none" />
  <path
     d="m 66.378588,29.629888 -8.19625,2.9825 c -0.0863,1.18 -0.31625,2.3625 -0.6925,3.525 l 8.92125,-3.2525 c 0.0638,-1.09 0.0537,-2.1775 -0.0325,-3.255 m -42.49875,15.4675 c 0.63125,0.88875 1.33,1.73625 2.08875,2.53625 l 8.9225,-3.25375 c -1.0425,-0.6525 -1.985,-1.41375 -2.81625,-2.26625 z"
     id="path44588"
     style="fill:#ba2133;fill-opacity:1;fill-rule:nonzero;stroke:none" />
</svg>
